<?xml version="1.0" encoding="iso-8859-1"?>
<!-- Generator: Adobe Illustrator 18.1.1, SVG Export Plug-In . SVG Version: 6.00 Build 0)  -->
<svg version="1.1" id="Layer_1" xmlns="http://www.w3.org/2000/svg" xmlns:xlink="http://www.w3.org/1999/xlink" x="0px" y="0px"
	 viewBox="0 0 500 500" style="enable-background:new 0 0 500 500;" xml:space="preserve">
<g>
	<path style="fill:#EA4C3A;" d="M500,500H0V0h500V500 M48.333,450h403.334V50H48.333"/>
	<path style="fill:#EA4C3A;" d="M95,421.666c-8.333,0-15-3.334-18.333-10c-3.334-6.667-3.334-15-1.667-23.333
		c1.667-10,8.333-20,16.667-28.334C103.334,348.333,120,336.666,140,326.666c10-5,20-10,33.333-15
		c20-33.333,36.667-68.333,48.333-100c1.667-5,3.334-8.333,5-13.333c-5-11.667-6.667-21.666-10-28.334
		c-3.334-15-6.667-28.334-8.333-40c-1.667-11.667,0-21.666,0-33.333c1.667-10,3.334-18.333,6.667-23.333c3.334-5,8.333-10,15-11.667
		C233.333,60,236.666,60,238.333,60c5-1.667,8.333,0,11.667,0c3.334,1.667,6.667,3.334,10,5c15,6.667,13.333,18.333,11.667,36.667
		V110c-1.667,20-8.333,53.334-18.333,88.333c0,1.667,1.667,3.334,1.667,5c8.333,15,18.333,33.333,33.333,51.667
		c6.667,8.333,13.333,16.667,20,25c11.667-1.667,23.333,0,35,0c11.667,1.667,23.333,3.334,35,6.667
		c13.333,3.334,21.666,6.667,30,11.667c10,6.667,18.333,15,21.666,25c5,10,5,21.666,0,31.667c-3.334,8.333-11.667,15-21.666,18.333
		c-10,3.334-18.333,3.334-28.334,0c-8.333-3.334-20-8.333-31.667-18.333c-11.667-8.333-23.333-18.333-36.667-31.667
		c-5-5-10-10-15-16.667c-8.333,1.667-16.667,1.667-28.334,5c-15,3.334-30,6.667-51.667,13.333c-8.333,3.334-18.333,6.667-28.334,10
		c-1.667,1.667-1.667,3.334-3.334,5c-18.333,28.334-36.667,50-51.667,65c-11.667,10-23.333,16.667-33.333,18.333
		C98.333,421.666,96.666,421.666,95,421.666z M95,395v13.333V395L95,395z M145,353.334c-18.333,10-28.334,20-33.333,25
		c-6.667,8.333-10,13.333-10,16.667l0,0c5-1.667,10-5,16.667-11.667C125,376.667,133.333,368.333,145,353.334z M333.333,303.334
		C345,316.667,355,325,366.667,333.333c11.667,8.333,20,11.667,23.333,13.333c5,1.667,8.333,1.667,13.333,0
		c3.334-1.667,5-3.334,6.667-5C411.666,340,411.666,335,410,330c-1.667-5-6.667-10-11.667-13.333
		c-5-3.334-11.667-6.667-21.666-8.333c-10-1.667-21.666-5-31.667-5C340,305,336.667,303.334,333.333,303.334z M243.333,230
		c-10,25-21.666,48.333-31.667,68.333c21.666-6.667,40-10,55-13.333c5-1.667,10-1.667,13.333-3.334c-3.334-5-6.667-10-10-13.333
		C258.333,255,250,241.667,243.333,230z M245,85L245,85l-3.334,1.667c-1.667,0-1.667,1.667-3.334,1.667
		c0,1.667-1.667,5-3.334,13.333s-1.667,18.333,0,26.667c0,6.667,1.667,15,3.334,23.333c3.334-18.333,6.667-33.333,6.667-45v-8.333
		c0-5,1.667-8.333,1.667-11.667C246.666,86.667,246.666,85,245,85z"/>
</g>
</svg>
