<?xml version="1.0" encoding="iso-8859-1"?>
<!-- Generator: Adobe Illustrator 18.1.1, SVG Export Plug-In . SVG Version: 6.00 Build 0)  -->
<svg version="1.1" id="Layer_1" xmlns="http://www.w3.org/2000/svg" xmlns:xlink="http://www.w3.org/1999/xlink" x="0px" y="0px"
	 viewBox="0 0 500 500" style="enable-background:new 0 0 500 500;" xml:space="preserve">
<g>
	<path style="fill:#EA4C3A;" d="M100,391.667v1.667c5-1.667,13.333-5,20-11.667c6.667-5,16.667-15,30-31.667
		c-21.666,10-33.333,21.666-38.333,26.667C101.667,383.333,100,388.333,100,391.667z"/>
	<path style="fill:#EA4C3A;" d="M243.333,233.333c-10,25-23.333,50-33.333,68.333c1.667,0,1.667,0,3.334,0
		c23.333-6.667,40-10,55-13.333c5-1.667,10-1.667,15-3.334c-3.334-5-8.333-10-11.667-13.333C260,260,250,246.666,243.333,233.333z"
		/>
	<path style="fill:#EA4C3A;" d="M240,166.667c5-20,8.333-36.667,8.333-48.333v-6.667c0-5,1.667-8.333,1.667-11.667
		c-1.667-1.667-3.334-1.667-5-3.334h-1.667c-1.667,0-1.667,0-1.667,0s-1.667,1.667-3.334,1.667c0,1.667-1.667,5-3.334,13.333
		c-1.667,8.333-1.667,16.667,0,26.667C235,146.666,236.667,156.667,240,166.667z"/>
	<path style="fill:#EA4C3A;" d="M0,0v500h500V0H0z M431.667,353.334c-3.334,5-8.333,13.333-21.666,16.667
		c-10,3.334-18.333,3.334-28.334,0c-8.333-3.334-20-8.333-31.667-16.667c-11.667-8.333-23.333-18.333-35-30c-5-5-10-10-15-16.667
		c-8.333,1.667-18.333,1.667-30,5c-13.333,1.667-30,6.667-51.667,11.667c-10,3.334-20,6.667-28.334,10
		c-1.667,1.667-1.667,3.334-3.334,5C168.333,365,149.999,386.667,135,400c-11.667,10-23.333,15-33.333,16.667c-1.667,0-3.334,0-5,0
		c-8.333,0-13.333-3.334-16.667-10c-3.334-5-3.334-13.333-1.667-21.666C80,375,85,366.667,95,358.334
		c11.667-11.667,28.334-21.666,46.666-31.667c10-5,21.666-10,33.333-13.333c15-21.666,35-56.667,48.333-95
		c1.667-5,3.334-8.333,5-13.333c-5-10-6.667-20-10-26.667c-3.334-13.333-6.667-26.667-8.333-36.667c-1.667-10,0-21.666,0-31.667
		c1.667-10,3.334-16.667,6.667-21.666c5-6.667,10-10,15-11.667c3.334-1.667,5-1.667,6.667-1.667c3.334,0,6.667-1.667,11.667,0
		c3.334,1.667,5,1.667,8.333,5l0,0c15,6.667,13.333,18.333,11.667,35v6.667c-1.667,20-8.333,50-18.333,83.333
		c0,1.667,1.667,3.334,3.334,5c8.333,15,18.333,31.667,33.333,48.333c6.667,8.333,13.333,16.667,21.666,25c11.667,0,23.333,0,35,0
		c11.667,1.667,25,3.334,35,5c13.333,3.334,21.666,6.667,30,11.667c10,6.667,16.667,15,21.666,23.333
		C435,333.333,436.667,345,431.667,353.334z"/>
	<path style="fill:#EA4C3A;" d="M396.666,320c-5-3.334-11.667-6.667-21.666-8.333c-10-1.667-20-5-31.667-5
		c-3.334,0-8.333,0-11.667,0c0,0,0,0,1.667,1.667c11.667,11.667,21.666,20,33.333,28.334c10,6.667,18.333,11.667,25,13.333
		c5,1.667,10,1.667,15,0c1.667,0,5-1.667,6.667-5c1.667-1.667,1.667-6.667,0-10C408.333,328.334,403.334,323.333,396.666,320z"/>
</g>
</svg>
