<?xml version="1.0" encoding="iso-8859-1"?>
<!-- Generator: Adobe Illustrator 18.1.1, SVG Export Plug-In . SVG Version: 6.00 Build 0)  -->
<svg version="1.1" id="Layer_1" xmlns="http://www.w3.org/2000/svg" xmlns:xlink="http://www.w3.org/1999/xlink" x="0px" y="0px"
	 viewBox="0 0 500 500" style="enable-background:new 0 0 500 500;" xml:space="preserve">
<path style="fill:#DD5B26;" d="M288.333,225c0-10-3.334-16.667-8.333-21.666c-5-5-15-8.333-28.334-8.333H230v61.667h21.666
	c15,0,23.333-3.334,30-10C286.667,241.667,288.333,235,288.333,225 M346.666,225c0,20-5,38.333-15,51.667
	c-13.333,16.667-33.333,26.667-63.333,26.667H230v80h-58.333V150h95c26.667,0,48.333,8.333,61.667,23.333
	C340,186.667,346.666,203.334,346.666,225z M500,500H0V0h500V500z M48.333,450h403.333V50H48.333"/>
</svg>
