<?xml version="1.0" encoding="iso-8859-1"?>
<!-- Generator: Adobe Illustrator 18.1.1, SVG Export Plug-In . SVG Version: 6.00 Build 0)  -->
<svg version="1.1" id="Layer_1" xmlns="http://www.w3.org/2000/svg" xmlns:xlink="http://www.w3.org/1999/xlink" x="0px" y="0px"
	 viewBox="0 0 500 500" style="enable-background:new 0 0 500 500;" xml:space="preserve">
<g>
	<path style="fill:#DD5B26;" d="M0,0v500h500V0H0z M331.667,276.667c-13.333,16.667-33.333,26.667-63.333,26.667H230v80h-58.333V150
		h95c26.667,0,48.333,8.333,61.667,23.333c11.667,13.333,18.333,30,18.333,51.667C346.666,245,341.667,261.667,331.667,276.667z"/>
	<path style="fill:#DD5B26;" d="M251.667,195H230v61.667h21.666c15,0,23.333-3.334,30-10c5-5,6.667-13.333,6.667-21.666
		c0-10-3.334-16.667-8.333-21.666C275,196.666,265,195,251.667,195z"/>
</g>
</svg>
